<?xml version="1.0" standalone="no"?>
<!DOCTYPE svg PUBLIC "-//W3C//DTD SVG 20010904//EN"
 "http://www.w3.org/TR/2001/REC-SVG-20010904/DTD/svg10.dtd">
<svg version="1.0" xmlns="http://www.w3.org/2000/svg"
 width="500.000000pt" height="500.000000pt" viewBox="0 0 500.000000 500.000000"
 preserveAspectRatio="xMidYMid meet">
<metadata>
Created by potrace 1.14, written by Peter Selinger 2001-2017
</metadata>
<g transform="translate(0.000000,500.000000) scale(0.100000,-0.100000)"
fill="#000000" stroke="none">
<path d="M977 2789 c-52 -27 -77 -72 -77 -135 0 -64 31 -102 105 -128 137 -48
140 -50 143 -83 6 -61 -85 -83 -110 -27 -10 22 -18 24 -75 24 -59 0 -63 -2
-63 -22 0 -40 38 -88 87 -110 61 -27 178 -23 220 8 54 40 75 83 71 142 -6 72
-31 96 -136 129 -94 29 -112 42 -112 83 0 55 79 66 102 15 10 -23 17 -25 75
-25 61 0 63 1 63 26 0 38 -28 79 -70 103 -52 29 -168 29 -223 0z"/>
<path d="M3152 2623 c3 -216 12 -245 87 -298 39 -27 50 -30 125 -30 73 0 87 3
123 27 26 17 50 45 67 79 25 51 26 59 26 231 l0 178 -60 0 -60 0 0 -170 c0
-180 -6 -210 -47 -229 -51 -23 -113 -6 -132 36 -7 14 -11 91 -11 193 l0 170
-61 0 -61 0 4 -187z"/>
<path d="M1586 2700 c-16 -5 -39 -19 -52 -31 l-24 -22 0 26 c0 26 -2 27 -60
27 l-60 0 0 -300 0 -300 60 0 60 0 0 120 0 119 36 -24 c43 -29 118 -34 163
-11 37 20 89 79 98 114 5 15 8 54 8 87 -1 98 -53 169 -141 194 -44 12 -48 12
-88 1z m75 -129 c23 -24 29 -38 29 -74 0 -80 -64 -126 -129 -93 -38 20 -51 44
-51 96 0 53 42 100 90 100 22 0 41 -9 61 -29z"/>
<path d="M2575 2696 c-16 -7 -39 -23 -49 -35 -26 -29 -36 -26 -36 9 l0 30 -60
0 -60 0 0 -205 0 -205 60 0 60 0 0 98 c0 152 20 192 95 192 24 0 25 3 25 65 0
36 -1 65 -2 65 -2 -1 -16 -7 -33 -14z"/>
<path d="M2797 2696 c-54 -15 -103 -56 -123 -103 -30 -69 -12 -196 34 -246 54
-60 182 -77 257 -34 36 20 85 77 85 98 0 15 -123 9 -150 -6 -14 -8 -35 -14
-48 -15 -26 0 -76 45 -67 60 4 6 64 10 146 10 l139 0 0 33 c0 146 -130 243
-273 203z m118 -121 c40 -39 32 -45 -55 -45 -49 0 -80 4 -80 10 0 23 50 60 80
60 19 0 40 -9 55 -25z"/>
<path d="M3902 2699 c-18 -4 -43 -16 -56 -28 -29 -27 -36 -27 -36 4 0 24 -3
25 -60 25 l-60 0 0 -300 0 -300 60 0 60 0 0 125 c0 77 4 125 10 125 6 0 10 -5
10 -10 0 -6 15 -19 33 -30 70 -43 174 -14 224 62 25 37 28 51 28 123 0 72 -3
86 -27 123 -45 68 -111 97 -186 81z m69 -128 c57 -58 30 -162 -46 -177 -47 -8
-92 20 -106 67 -32 104 78 183 152 110z"/>
<path d="M1874 2638 c13 -35 49 -125 79 -201 l56 -139 -40 -90 c-21 -51 -39
-95 -39 -100 0 -5 28 -8 62 -6 l62 3 128 295 c70 162 128 296 128 297 0 2 -29
3 -64 3 l-64 0 -48 -130 c-26 -72 -50 -127 -54 -123 -4 4 -27 63 -50 131 l-43
122 -68 0 -69 0 24 -62z"/>
</g>
</svg>
